HIERARCHY
ROOT Hips
{
	OFFSET 0.00000 0.00000 0.00000
	CHANNELS 6 Xposition Yposition Zposition Zrotation Yrotation Xrotation 
	JOINT LHipJoint
	{
		OFFSET 0 0 0
		CHANNELS 3 Zrotation Yrotation Xrotation
		JOINT LeftUpLeg
		{
			OFFSET 1.36337 -1.57426 1.11036
			CHANNELS 3 Zrotation Yrotation Xrotation
			JOINT LeftLeg
			{
				OFFSET 2.38468 -6.55187 0.00000
				CHANNELS 3 Zrotation Yrotation Xrotation
				JOINT LeftFoot
				{
					OFFSET 2.37166 -6.51609 0.00000
					CHANNELS 3 Zrotation Yrotation Xrotation
					JOINT LeftToeBase
					{
						OFFSET 0.29078 -0.79891 2.01393
						CHANNELS 3 Zrotation Yrotation Xrotation
						End Site
						{
							OFFSET 0.00000 -0.00000 1.07924
						}
					}
				}
			}
		}
	}
	JOINT RHipJoint
	{
		OFFSET 0 0 0
		CHANNELS 3 Zrotation Yrotation Xrotation
		JOINT RightUpLeg
		{
			OFFSET -1.36349 -1.57426 1.11036
			CHANNELS 3 Zrotation Yrotation Xrotation
			JOINT RightLeg
			{
				OFFSET -2.29562 -6.30717 0.00000
				CHANNELS 3 Zrotation Yrotation Xrotation
				JOINT RightFoot
				{
					OFFSET -2.40985 -6.62100 0.00000
					CHANNELS 3 Zrotation Yrotation Xrotation
					JOINT RightToeBase
					{
						OFFSET -0.23197 -0.63733 1.92232
						CHANNELS 3 Zrotation Yrotation Xrotation
						End Site
						{
							OFFSET -0.00000 -0.00000 1.01562
						}
					}
				}
			}
		}
	}
	JOINT LowerBack
	{
		OFFSET 0 0 0
		CHANNELS 3 Zrotation Yrotation Xrotation
		JOINT Spine
		{
			OFFSET -0.08565 2.03602 -0.24562
			CHANNELS 3 Zrotation Yrotation Xrotation
			JOINT Spine1
			{
				OFFSET -0.00036 2.05693 0.00216
				CHANNELS 3 Zrotation Yrotation Xrotation
				JOINT Neck
				{
					OFFSET 0 0 0
					CHANNELS 3 Zrotation Yrotation Xrotation
					JOINT Neck1
					{
						OFFSET -0.03664 1.69515 0.31789
						CHANNELS 3 Zrotation Yrotation Xrotation
						JOINT Head
						{
							OFFSET 0.00932 1.70181 -0.46013
							CHANNELS 3 Zrotation Yrotation Xrotation
							End Site
							{
								OFFSET 0.01243 1.77620 -0.19377
							}
						}
					}
				}
				JOINT LeftShoulder
				{
					OFFSET 0 0 0
					CHANNELS 3 Zrotation Yrotation Xrotation
					JOINT LeftArm
					{
						OFFSET 3.74344 0.81315 -0.36647
						CHANNELS 3 Zrotation Yrotation Xrotation
						JOINT LeftForeArm
						{
							OFFSET 4.97185 -0.00000 -0.00000
							CHANNELS 3 Zrotation Yrotation Xrotation
							JOINT LeftHand
							{
								OFFSET 3.35811 -0.00000 0.00000
								CHANNELS 3 Zrotation Yrotation Xrotation
								JOINT LeftFingerBase
								{
									OFFSET 0 0 0
									CHANNELS 3 Zrotation Yrotation Xrotation
									JOINT LeftHandIndex1
									{
										OFFSET 0.62278 -0.00000 0.00000
										CHANNELS 3 Zrotation Yrotation Xrotation
										End Site
										{
											OFFSET 0.50210 -0.00000 0.00000
										}
									}
								}
								JOINT LThumb
								{
									OFFSET 0 0 0
									CHANNELS 3 Zrotation Yrotation Xrotation
									End Site
									{
										OFFSET 0.50976 -0.00000 0.50976
									}
								}
							}
						}
					}
				}
				JOINT RightShoulder
				{
					OFFSET 0 0 0
					CHANNELS 3 Zrotation Yrotation Xrotation
					JOINT RightArm
					{
						OFFSET -3.75385 0.50666 -0.06525
						CHANNELS 3 Zrotation Yrotation Xrotation
						JOINT RightForeArm
						{
							OFFSET -4.96493 -0.00000 -0.00000
							CHANNELS 3 Zrotation Yrotation Xrotation
							JOINT RightHand
							{
								OFFSET -3.34929 -0.00000 0.00000
								CHANNELS 3 Zrotation Yrotation Xrotation
								JOINT RightFingerBase
								{
									OFFSET 0 0 0
									CHANNELS 3 Zrotation Yrotation Xrotation
									JOINT RightHandIndex1
									{
										OFFSET -0.63804 -0.00000 0.00000
										CHANNELS 3 Zrotation Yrotation Xrotation
										End Site
										{
											OFFSET -0.51441 -0.00000 0.00000
										}
									}
								}
								JOINT RThumb
								{
									OFFSET 0 0 0
									CHANNELS 3 Zrotation Yrotation Xrotation
									End Site
									{
										OFFSET -0.52226 -0.00000 0.52226
									}
								}
							}
						}
					}
				}
			}
		}
	}
}
MOTION
Frames: 8
Frame Time: .0083333
11.0115 16.847 -1.9166 0 0 0 0 0 0 -21 0 0 0 0 0 0 0 0 0 0 0 0 0 0 21 0 0 0 0 0 0 0 0 0 0 0 0 0 0 0 0 0 0 0 0 0 0 -16 0 0 21 0 0 11 0 0 0 -8 0 0 0 0 0 0 0 0 0 0 0 0 0 0 0 0 0 0 0 0 8 0 0 0 0 0 0 0 0 0 0 0 0 0 0 0 0 0
11.0115 16.8470 -1.9166 149.6020 -82.1568 -146.4590 0.0000 0.0000 0.0000 -16.5914 -8.5353 -1.2365 1.0160 6.4129 17.9874 0.1424 16.7159 -24.9766 0.0004 0.1212 0.3329 0.0000 0.0000 0.0000 11.4915 -1.6633 -5.3515 -0.8069 -5.7329 16.0113 -0.4489 5.1908 -11.9464 -0.5614 -4.7990 13.3362 -3.2172 -0.1685 -6.9149 0.7410 0.0324 2.8456 2.5904 -0.1484 6.8679 -3.0524 1.3464 -24.3802 -0.1213 2.5877 36.1748 0.9369 0.2689 17.3504 -0.0000 0.0000 0.0000 -92.2051 -3.6165 31.4219 11.4852 -19.0281 -1.9311 -0.0000 0.0000 -7.3925 21.3829 -10.2859 -3.9994 -7.1250 0.0000 -0.0000 -3.9994 18.9663 2.4884 -0.0000 0.0000 0.0000 88.4041 0.9960 18.9912 -14.2925 23.1514 -2.9421 0.0000 -0.0000 -11.7681 -12.5213 -30.3822 6.4088 7.1250 -0.0000 -0.0000 21.5731 -59.6497 -7.9405
11.0232 16.8510 -1.9618 153.1920 -82.4508 -150.1880 0.0000 0.0000 0.0000 -15.7356 -8.3353 -1.1818 1.0145 6.4083 17.9739 0.6473 13.2749 -25.1940 0.0824 -1.8514 -5.0952 0.0000 0.0000 0.0000 12.4356 -0.9220 -4.8647 -0.8022 -5.7165 15.9642 -0.5292 5.4336 -12.9661 -1.5395 -7.8327 22.2072 -2.8769 -0.2249 -6.6679 1.0596 -0.1049 2.7789 2.7147 -0.2045 6.6634 -3.2130 1.3780 -23.9589 -0.1437 2.6818 36.0829 0.9683 0.2812 17.1935 0.0000 0.0000 0.0000 -92.3131 -3.3250 31.4290 11.4545 -18.9816 -1.9212 -0.0000 0.0000 -8.1994 22.2099 -10.7945 -4.3728 -7.1250 0.0000 -0.0000 -3.4293 18.3550 2.1788 0.0000 0.0000 0.0000 88.1200 0.8063 19.3063 -14.2677 23.1161 -2.9324 0.0000 -0.0000 -11.6841 -12.7310 -29.3271 6.3145 7.1250 -0.0000 -0.0000 20.5624 -58.7188 -7.0863
11.0483 16.8560 -1.9960 152.2240 -82.4931 -149.0970 0.0000 0.0000 0.0000 -15.6473 -8.2759 -1.2761 0.9798 6.3010 17.6604 0.6014 13.2922 -24.8319 0.0766 -1.7857 -4.9138 0.0000 0.0000 0.0000 12.4762 -1.1304 -5.3856 -0.8427 -5.8555 16.3657 -0.5482 6.5756 -13.2844 -2.8372 -10.4267 30.3699 -3.0179 -0.3173 -6.5820 1.1410 -0.2229 2.6662 2.8647 -0.2659 6.5044 -3.3219 1.3867 -23.6556 -0.1996 2.7483 35.8702 0.9715 0.2930 17.0054 -0.0000 -0.0000 0.0000 -92.4272 -3.0768 31.0990 11.5376 -19.1076 -1.9483 -0.0000 0.0000 -8.3363 22.1541 -10.8621 -4.3876 -7.1250 0.0000 -0.0000 -3.4709 18.2873 2.2105 -0.0000 -0.0000 0.0000 87.9885 0.5597 19.5846 -14.4032 23.3081 -2.9858 0.0000 -0.0000 -11.7348 -12.6101 -28.8203 6.1552 7.1250 -0.0000 -0.0000 20.3261 -58.2195 -6.7544
11.0916 16.8596 -2.0383 155.4080 -82.6966 -152.1120 0.0000 0.0000 0.0000 -14.8610 -8.2298 -1.5153 0.9600 6.2388 17.4788 0.6070 13.1143 -24.6909 0.0534 -1.4915 -4.1023 0.0000 0.0000 0.0000 13.2741 -0.1477 -5.4269 -0.8636 -5.9257 16.5690 -0.6468 6.5504 -14.3799 -6.0428 -14.4697 45.1532 -2.7716 -0.3639 -6.1481 1.4446 -0.3381 2.3924 3.0287 -0.3066 5.9744 -3.4581 1.4170 -23.0805 -0.3577 2.8747 35.5893 0.9421 0.3112 16.7193 0.0000 0.0000 0.0000 -92.5465 -2.6080 30.8885 11.7060 -19.3622 -2.0037 -0.0000 0.0000 -8.6507 21.7956 -10.9775 -4.3545 -7.1250 0.0000 -0.0000 -3.7272 18.1946 2.3821 0.0000 0.0000 0.0000 87.8041 0.0815 20.1281 -14.5829 23.5618 -3.0573 0.0000 -0.0000 -12.1975 -12.3875 -29.1999 6.1160 7.1250 -0.0000 -0.0000 20.8255 -58.5244 -7.0840
11.0518 16.8361 -2.0580 148.7180 -82.5015 -145.9040 0.0000 0.0000 0.0000 -15.9115 -8.0367 -0.6683 0.9304 6.1447 17.2049 0.6535 12.8234 -24.7778 0.0451 -1.3706 -3.7693 0.0000 0.0000 0.0000 12.0337 -3.2380 -5.9462 -0.8974 -6.0376 16.8935 -0.4816 9.3651 -13.0910 -5.9289 -14.3591 44.6956 -3.3732 -0.5925 -6.4072 1.2764 -0.5726 2.4763 3.1652 -0.4477 6.2358 -3.4153 1.5916 -21.9748 -0.7495 3.1955 34.9502 0.8118 0.4163 16.1366 0.0000 -0.0000 0.0000 -92.6076 -2.0224 30.5301 11.8624 -19.5979 -2.0559 -0.0000 0.0000 -8.8352 22.2291 -11.4441 -4.6358 -7.1250 0.0000 -0.0000 -3.4388 17.6575 2.2378 0.0000 -0.0000 0.0000 87.6154 -0.2878 20.6255 -14.5940 23.5774 -3.0617 0.0000 -0.0000 -12.4882 -12.3531 -29.3649 6.1297 7.1250 -0.0000 -0.0000 20.9808 -58.6700 -7.2139
11.0859 16.8446 -2.1070 152.8120 -82.9061 -149.8590 0.0000 0.0000 0.0000 -14.9033 -8.1439 -0.8494 0.9102 6.0792 17.0145 0.6101 12.9159 -24.5090 0.0465 -1.3920 -3.8280 0.0000 0.0000 0.0000 13.0845 -2.1947 -5.8383 -0.9196 -6.1100 17.1038 -0.6177 8.8790 -14.4146 -5.7127 -14.1440 43.8174 -2.9204 -0.7354 -6.2562 1.6674 -0.8332 2.3242 3.2898 -0.5615 6.0082 -3.1188 1.9862 -20.6793 -1.7150 3.9527 33.7701 0.4791 0.6843 15.2908 0.0000 -0.0000 0.0000 -92.8341 -1.7703 29.8031 11.8880 -19.6364 -2.0645 -0.0000 0.0000 -8.2251 23.2330 -11.6856 -4.9692 -7.1250 0.0000 -0.0000 -2.7465 17.3041 1.8073 0.0000 -0.0000 0.0000 87.3110 -0.3759 21.0818 -14.5888 23.5701 -3.0596 0.0000 -0.0000 -12.5753 -12.2544 -29.8069 6.1621 7.1250 -0.0000 -0.0000 21.4104 -59.0575 -7.5712
11.1019 16.8469 -2.1529 152.8480 -82.9623 -149.9490 0.0000 0.0000 0.0000 -14.6788 -8.1244 -0.7998 0.8921 6.0202 16.8431 0.5537 13.1164 -24.2401 0.0624 -1.6123 -4.4353 0.0000 0.0000 0.0000 13.2975 -2.3308 -5.9415 -0.9413 -6.1794 17.3057 -0.6631 9.1746 -14.9340 -5.4178 -13.8394 42.5979 -2.8543 -0.6211 -6.2114 1.6299 -0.6853 2.3800 3.2303 -0.4864 6.0277 -3.1206 1.7645 -20.5714 -1.6545 3.5978 33.5785 0.4386 0.5561 15.1762 -0.0000 0.0000 0.0000 -92.6134 -1.8328 29.9549 11.8469 -19.5747 -2.0507 -0.0000 0.0000 -7.5883 23.6537 -11.5051 -4.9928 -7.1250 0.0000 -0.0000 -2.4440 17.4585 1.5996 -0.0000 0.0000 0.0000 87.5752 -0.3804 20.6235 -14.6078 23.5969 -3.0672 0.0000 -0.0000 -12.5061 -12.3508 -30.3784 6.3187 7.1250 -0.0000 -0.0000 21.7479 -59.6070 -7.9862
